<svg width="25" height="25" viewBox="0 0 25 25" fill="none" xmlns="http://www.w3.org/2000/svg">
<path d="M8.27149 22.4438C7.97854 22.1508 7.81396 21.7534 7.81396 21.3391C7.81396 20.9248 7.97854 20.5274 8.27149 20.2344L16.0059 12.5L8.27149 4.76562C7.99582 4.46949 7.84576 4.07798 7.85288 3.67347C7.86 3.26895 8.02375 2.88296 8.30967 2.59672C8.5956 2.31048 8.9814 2.14631 9.38591 2.13874C9.79042 2.13117 10.1821 2.2808 10.4785 2.55615L19.3189 11.394C19.6118 11.6871 19.7764 12.0844 19.7764 12.4988C19.7764 12.9131 19.6118 13.3105 19.3189 13.6035L10.481 22.4438C10.1879 22.7368 9.79057 22.9014 9.37623 22.9014C8.96189 22.9014 8.56451 22.7368 8.27149 22.4438Z" fill="#717054"/>
</svg>
