<svg width="28" height="17" viewBox="0 0 28 17" fill="none" xmlns="http://www.w3.org/2000/svg">
<path d="M1.55556 17C1.11482 17 0.745635 16.832 0.448005 16.496C0.150376 16.16 0.0010424 15.7447 5.36398e-06 15.25C-0.00103167 14.7553 0.148302 14.34 0.448005 14.004C0.747709 13.668 1.11689 13.5 1.55556 13.5H26.4444C26.8852 13.5 27.2549 13.668 27.5536 14.004C27.8522 14.34 28.001 14.7553 28 15.25C27.999 15.7447 27.8496 16.1606 27.552 16.4977C27.2544 16.8349 26.8852 17.0023 26.4444 17H1.55556ZM1.55556 10.25C1.11482 10.25 0.745635 10.082 0.448005 9.74598C0.150376 9.40998 0.0010424 8.99465 5.36398e-06 8.49998C-0.00103167 8.00531 0.148302 7.58998 0.448005 7.25398C0.747709 6.91798 1.11689 6.74998 1.55556 6.74998H26.4444C26.8852 6.74998 27.2549 6.91798 27.5536 7.25398C27.8522 7.58998 28.001 8.00531 28 8.49998C27.999 8.99465 27.8496 9.41056 27.552 9.74773C27.2544 10.0849 26.8852 10.2523 26.4444 10.25H1.55556ZM1.55556 3.5C1.11482 3.5 0.745635 3.332 0.448005 2.996C0.150376 2.66 0.0010424 2.24466 5.36398e-06 1.75C-0.00103167 1.25533 0.148302 0.839999 0.448005 0.504C0.747709 0.168 1.11689 0 1.55556 0H26.4444C26.8852 0 27.2549 0.168 27.5536 0.504C27.8522 0.839999 28.001 1.25533 28 1.75C27.999 2.24466 27.8496 2.66058 27.552 2.99775C27.2544 3.33491 26.8852 3.50233 26.4444 3.5H1.55556Z" fill="#ECECEC"/>
</svg>
