<svg width="146" height="97" viewBox="0 0 146 97" fill="none" xmlns="http://www.w3.org/2000/svg">
<g clip-path="url(#clip0_23_17)">
<g filter="url(#filter0_g_23_17)">
<path d="M90.1069 71.2805C74.0575 77.9616 47.9054 62.6859 48.3356 47.6709C48.8734 28.9022 68.6079 29.7704 58.4061 48.7126C54.6574 55.6731 28.4235 75.7739 16.8467 53.0533C10.4908 40.5792 25.2338 18.8511 30.176 12.0307" stroke="#ECECEC" stroke-width="8" stroke-linecap="round"/>
</g>
<g filter="url(#filter1_g_23_17)">
<path d="M12 15L28.4803 12.3275C29.5883 12.1479 30.6271 12.9149 30.7815 14.0266L33 30" stroke="#ECECEC" stroke-width="8" stroke-linecap="round"/>
</g>
<g filter="url(#filter2_g_23_17)">
<path d="M48.3356 47.6709L46.3365 47.6137V47.6137L48.3356 47.6709ZM58.4061 48.7126L60.167 49.6609L58.4061 48.7126ZM16.8467 53.0533L18.6287 52.1453L16.8467 53.0533ZM32.151 11.7153C31.9768 10.6246 30.9514 9.88154 29.8607 10.0557L12.0858 12.8939C10.9951 13.068 10.252 14.0935 10.4262 15.1842C10.6004 16.275 11.6258 17.018 12.7165 16.8438L28.5164 14.321L31.0392 30.1209C31.2134 31.2116 32.2388 31.9547 33.3295 31.7805C34.4203 31.6063 35.1633 30.5809 34.9892 29.4902L32.151 11.7153ZM90.1069 71.2805L89.3383 69.4341C82.112 72.4423 72.2422 70.5745 64.0351 65.8761C59.9758 63.5522 56.4626 60.6081 54.01 57.4155C51.5511 54.2148 50.2444 50.8843 50.3348 47.7282L48.3356 47.6709L46.3365 47.6137C46.2118 51.9651 48.0127 56.1747 50.8379 59.8523C53.6694 63.5381 57.6166 66.8107 62.0477 69.3475C70.8215 74.3703 82.0525 76.7998 90.8756 73.1269L90.1069 71.2805ZM48.3356 47.6709L50.3348 47.7282C50.4594 43.3808 51.6892 40.3497 53.147 38.4828C54.6369 36.5748 56.2535 35.9809 57.2703 36.0461C57.7592 36.0774 58.1497 36.2529 58.4542 36.5475C58.7652 36.8483 59.0883 37.3746 59.2413 38.2599C59.5565 40.0827 59.0963 43.2132 56.6453 47.7642L58.4061 48.7126L60.167 49.6609C62.8168 44.7408 63.7155 40.6594 63.1829 37.5785C62.912 36.0119 62.2596 34.6634 61.2353 33.6725C60.2045 32.6753 58.9 32.1423 57.5261 32.0543C54.8173 31.8807 52.0371 33.405 49.9943 36.021C47.9194 38.6781 46.4808 42.5767 46.3365 47.6137L48.3356 47.6709ZM58.4061 48.7126L56.6453 47.7642C55.8995 49.1489 53.8067 51.508 50.7174 53.9544C47.6776 56.3615 43.8725 58.6938 39.8836 60.1319C35.884 61.5739 31.8572 62.0627 28.254 61.0182C24.7206 59.9939 21.3135 57.4143 18.6287 52.1453L16.8467 53.0533L15.0647 53.9612C18.1684 60.0525 22.3818 63.4806 27.1403 64.86C31.8292 66.2193 36.7657 65.508 41.2403 63.8948C45.7256 62.2777 49.9053 59.6997 53.2006 57.0903C56.4462 54.5202 59.0384 51.7565 60.167 49.6609L58.4061 48.7126ZM16.8467 53.0533L18.6287 52.1453C17.2917 49.5213 17.0019 46.2827 17.5323 42.6273C18.0619 38.9777 19.3883 35.0653 21.1002 31.2386C24.5241 23.585 29.3492 16.5803 31.7955 13.2042L30.176 12.0307L28.5565 10.8572C26.0606 14.3015 21.043 21.5711 17.4489 29.6051C15.6518 33.6223 14.1753 37.9071 13.5737 42.0529C12.973 46.193 13.2237 50.3482 15.0647 53.9612L16.8467 53.0533Z" fill="#666444"/>
</g>
<g filter="url(#filter3_ddddg_23_17)">
<path d="M104.55 77.06C107.03 77.06 108.27 78.38 108.27 81.02V92H104.25V80.54C104.25 80.38 104.19 80.24 104.07 80.12C103.97 80 103.84 79.94 103.68 79.94H102.39C102.23 79.94 102.09 80 101.97 80.12C101.87 80.24 101.82 80.38 101.82 80.54V92H97.8V80.54C97.8 80.38 97.74 80.24 97.62 80.12C97.52 80 97.39 79.94 97.23 79.94H95.94C95.78 79.94 95.64 80 95.52 80.12C95.42 80.24 95.37 80.38 95.37 80.54V92H91.35V77.36H95.01V78.11C95.63 77.41 96.57 77.06 97.83 77.06H98.1C99.58 77.06 100.61 77.52 101.19 78.44C101.81 77.52 102.84 77.06 104.28 77.06H104.55ZM118.294 77.06C120.774 77.06 122.014 78.38 122.014 81.02V85.76H115.204V88.82C115.204 88.98 115.254 89.12 115.354 89.24C115.474 89.36 115.614 89.42 115.774 89.42H117.424C117.584 89.42 117.714 89.36 117.814 89.24C117.934 89.12 117.994 88.98 117.994 88.82V87.2H122.014V88.34C122.014 90.98 120.774 92.3 118.294 92.3H114.904C112.424 92.3 111.184 90.98 111.184 88.34V81.02C111.184 78.38 112.424 77.06 114.904 77.06H118.294ZM115.204 83.12H117.994V80.42C117.994 80.26 117.934 80.12 117.814 80C117.714 79.88 117.584 79.82 117.424 79.82H115.774C115.614 79.82 115.474 79.88 115.354 80C115.254 80.12 115.204 80.26 115.204 80.42V83.12Z" fill="#666444"/>
</g>
<g filter="url(#filter4_ddddg_23_17)">
<path d="M99.7 53.06C100.72 53.06 101.54 53.3 102.16 53.78V48.59H106.18V68H102.79V66.92C102.17 67.84 101.14 68.3 99.7 68.3H99.07C96.59 68.3 95.35 66.98 95.35 64.34V57.02C95.35 54.38 96.59 53.06 99.07 53.06H99.7ZM102.16 64.82V56.54C102.16 56.38 102.1 56.24 101.98 56.12C101.88 56 101.75 55.94 101.59 55.94H99.94C99.78 55.94 99.64 56 99.52 56.12C99.42 56.24 99.37 56.38 99.37 56.54V64.82C99.37 64.98 99.42 65.12 99.52 65.24C99.64 65.36 99.78 65.42 99.94 65.42H101.59C101.75 65.42 101.88 65.36 101.98 65.24C102.1 65.12 102.16 64.98 102.16 64.82ZM115.154 53.06H115.934V56.96H113.954C113.274 56.96 112.934 57.31 112.934 58.01V68H108.914V53.36H112.574V54.77C113.154 53.63 114.014 53.06 115.154 53.06ZM125.173 53.36H128.563V68H125.173V66.92C124.553 67.84 123.523 68.3 122.083 68.3H121.453C118.973 68.3 117.733 66.98 117.733 64.34V57.02C117.733 54.38 118.973 53.06 121.453 53.06H122.083C123.523 53.06 124.553 53.52 125.173 54.44V53.36ZM124.543 64.82V56.54C124.543 56.38 124.483 56.24 124.363 56.12C124.263 56 124.133 55.94 123.973 55.94H122.323C122.163 55.94 122.023 56 121.903 56.12C121.803 56.24 121.753 56.38 121.753 56.54V64.82C121.753 64.98 121.803 65.12 121.903 65.24C122.023 65.36 122.163 65.42 122.323 65.42H123.973C124.133 65.42 124.263 65.36 124.363 65.24C124.483 65.12 124.543 64.98 124.543 64.82ZM142.127 53.36V69.11C142.127 71.75 140.887 73.07 138.407 73.07H135.407C132.927 73.07 131.687 71.75 131.687 69.11V68.63H135.317V69.59C135.317 69.75 135.367 69.89 135.467 70.01C135.587 70.13 135.727 70.19 135.887 70.19H137.537C137.697 70.19 137.827 70.13 137.927 70.01C138.047 69.89 138.107 69.75 138.107 69.59V66.59C137.487 67.07 136.667 67.31 135.647 67.31H135.017C132.537 67.31 131.297 65.99 131.297 63.35V57.02C131.297 54.38 132.537 53.06 135.017 53.06H135.647C137.087 53.06 138.117 53.52 138.737 54.44V53.36H142.127ZM138.107 63.83V56.54C138.107 56.38 138.047 56.24 137.927 56.12C137.827 56 137.697 55.94 137.537 55.94H135.887C135.727 55.94 135.587 56 135.467 56.12C135.367 56.24 135.317 56.38 135.317 56.54V63.83C135.317 63.99 135.367 64.13 135.467 64.25C135.587 64.37 135.727 64.43 135.887 64.43H137.537C137.697 64.43 137.827 64.37 137.927 64.25C138.047 64.13 138.107 63.99 138.107 63.83Z" fill="#666444"/>
</g>
<g filter="url(#filter5_g_23_17)">
<path d="M133.273 75H125C125.667 80.6667 125.973 92.3 126.773 93.5C127.773 95 131.273 94.5 132.273 93.5C133.073 92.7 133.273 80.8333 133.273 75Z" fill="#ECECEC"/>
</g>
<g filter="url(#filter6_g_23_17)">
<path d="M131.001 76.472L130.593 87.44H128.193L127.785 76.472H131.001ZM127.689 90.512C127.689 90.032 127.857 89.624 128.193 89.288C128.529 88.952 128.937 88.784 129.417 88.784C129.897 88.784 130.305 88.952 130.641 89.288C130.977 89.624 131.145 90.032 131.145 90.512C131.145 90.992 130.977 91.4 130.641 91.736C130.305 92.072 129.897 92.24 129.417 92.24C128.937 92.24 128.529 92.072 128.193 91.736C127.857 91.4 127.689 90.992 127.689 90.512Z" fill="#666444"/>
</g>
</g>
<defs>
<filter id="filter0_g_23_17" x="10.2827" y="7.0304" width="84.8253" height="70.8667" filterUnits="userSpaceOnUse" color-interpolation-filters="sRGB">
<feFlood flood-opacity="0" result="BackgroundImageFix"/>
<feBlend mode="normal" in="SourceGraphic" in2="BackgroundImageFix" result="shape"/>
<feTurbulence type="fractalNoise" baseFrequency="0.99900001287460327 0.99900001287460327" numOctaves="3" seed="7054" />
<feDisplacementMap in="shape" scale="2" xChannelSelector="R" yChannelSelector="G" result="displacedImage" width="100%" height="100%" />
<feMerge result="effect1_texture_23_17">
<feMergeNode in="displacedImage"/>
</feMerge>
</filter>
<filter id="filter1_g_23_17" x="6.99939" y="7.30078" width="31.0011" height="27.6997" filterUnits="userSpaceOnUse" color-interpolation-filters="sRGB">
<feFlood flood-opacity="0" result="BackgroundImageFix"/>
<feBlend mode="normal" in="SourceGraphic" in2="BackgroundImageFix" result="shape"/>
<feTurbulence type="fractalNoise" baseFrequency="0.99900001287460327 0.99900001287460327" numOctaves="3" seed="2628" />
<feDisplacementMap in="shape" scale="2" xChannelSelector="R" yChannelSelector="G" result="displacedImage" width="100%" height="100%" />
<feMerge result="effect1_texture_23_17">
<feMergeNode in="displacedImage"/>
</feMerge>
</filter>
<filter id="filter2_g_23_17" x="9.40088" y="9.0304" width="82.4747" height="66.8652" filterUnits="userSpaceOnUse" color-interpolation-filters="sRGB">
<feFlood flood-opacity="0" result="BackgroundImageFix"/>
<feBlend mode="normal" in="SourceGraphic" in2="BackgroundImageFix" result="shape"/>
<feTurbulence type="fractalNoise" baseFrequency="0.99900001287460327 0.99900001287460327" numOctaves="3" seed="7054" />
<feDisplacementMap in="shape" scale="2" xChannelSelector="R" yChannelSelector="G" result="displacedImage" width="100%" height="100%" />
<feMerge result="effect1_texture_23_17">
<feMergeNode in="displacedImage"/>
</feMerge>
</filter>
<filter id="filter3_ddddg_23_17" x="89.35" y="75.0601" width="34.664" height="19.24" filterUnits="userSpaceOnUse" color-interpolation-filters="sRGB">
<feFlood flood-opacity="0" result="BackgroundImageFix"/>
<feColorMatrix in="SourceAlpha" type="matrix" values="0 0 0 0 0 0 0 0 0 0 0 0 0 0 0 0 0 0 127 0" result="hardAlpha"/>
<feOffset dx="2" dy="2"/>
<feComposite in2="hardAlpha" operator="out"/>
<feColorMatrix type="matrix" values="0 0 0 0 0.92549 0 0 0 0 0.92549 0 0 0 0 0.92549 0 0 0 1 0"/>
<feBlend mode="normal" in2="BackgroundImageFix" result="effect1_dropShadow_23_17"/>
<feColorMatrix in="SourceAlpha" type="matrix" values="0 0 0 0 0 0 0 0 0 0 0 0 0 0 0 0 0 0 127 0" result="hardAlpha"/>
<feOffset dx="-2" dy="2"/>
<feComposite in2="hardAlpha" operator="out"/>
<feColorMatrix type="matrix" values="0 0 0 0 0.92549 0 0 0 0 0.92549 0 0 0 0 0.92549 0 0 0 1 0"/>
<feBlend mode="normal" in2="effect1_dropShadow_23_17" result="effect2_dropShadow_23_17"/>
<feColorMatrix in="SourceAlpha" type="matrix" values="0 0 0 0 0 0 0 0 0 0 0 0 0 0 0 0 0 0 127 0" result="hardAlpha"/>
<feOffset dx="-2" dy="-2"/>
<feComposite in2="hardAlpha" operator="out"/>
<feColorMatrix type="matrix" values="0 0 0 0 0.92549 0 0 0 0 0.92549 0 0 0 0 0.92549 0 0 0 1 0"/>
<feBlend mode="normal" in2="effect2_dropShadow_23_17" result="effect3_dropShadow_23_17"/>
<feColorMatrix in="SourceAlpha" type="matrix" values="0 0 0 0 0 0 0 0 0 0 0 0 0 0 0 0 0 0 127 0" result="hardAlpha"/>
<feOffset dx="2" dy="-2"/>
<feComposite in2="hardAlpha" operator="out"/>
<feColorMatrix type="matrix" values="0 0 0 0 0.92549 0 0 0 0 0.92549 0 0 0 0 0.92549 0 0 0 1 0"/>
<feBlend mode="normal" in2="effect3_dropShadow_23_17" result="effect4_dropShadow_23_17"/>
<feBlend mode="normal" in="SourceGraphic" in2="effect4_dropShadow_23_17" result="shape"/>
<feTurbulence type="fractalNoise" baseFrequency="0.99900001287460327 0.99900001287460327" numOctaves="3" seed="2025" />
<feDisplacementMap in="shape" scale="2" xChannelSelector="R" yChannelSelector="G" result="displacedImage" width="100%" height="100%" />
<feMerge result="effect5_texture_23_17">
<feMergeNode in="displacedImage"/>
</feMerge>
</filter>
<filter id="filter4_ddddg_23_17" x="93.35" y="46.59" width="50.7773" height="28.48" filterUnits="userSpaceOnUse" color-interpolation-filters="sRGB">
<feFlood flood-opacity="0" result="BackgroundImageFix"/>
<feColorMatrix in="SourceAlpha" type="matrix" values="0 0 0 0 0 0 0 0 0 0 0 0 0 0 0 0 0 0 127 0" result="hardAlpha"/>
<feOffset dx="2" dy="2"/>
<feComposite in2="hardAlpha" operator="out"/>
<feColorMatrix type="matrix" values="0 0 0 0 0.92549 0 0 0 0 0.92549 0 0 0 0 0.92549 0 0 0 1 0"/>
<feBlend mode="normal" in2="BackgroundImageFix" result="effect1_dropShadow_23_17"/>
<feColorMatrix in="SourceAlpha" type="matrix" values="0 0 0 0 0 0 0 0 0 0 0 0 0 0 0 0 0 0 127 0" result="hardAlpha"/>
<feOffset dx="-2" dy="2"/>
<feComposite in2="hardAlpha" operator="out"/>
<feColorMatrix type="matrix" values="0 0 0 0 0.92549 0 0 0 0 0.92549 0 0 0 0 0.92549 0 0 0 1 0"/>
<feBlend mode="normal" in2="effect1_dropShadow_23_17" result="effect2_dropShadow_23_17"/>
<feColorMatrix in="SourceAlpha" type="matrix" values="0 0 0 0 0 0 0 0 0 0 0 0 0 0 0 0 0 0 127 0" result="hardAlpha"/>
<feOffset dx="-2" dy="-2"/>
<feComposite in2="hardAlpha" operator="out"/>
<feColorMatrix type="matrix" values="0 0 0 0 0.92549 0 0 0 0 0.92549 0 0 0 0 0.92549 0 0 0 1 0"/>
<feBlend mode="normal" in2="effect2_dropShadow_23_17" result="effect3_dropShadow_23_17"/>
<feColorMatrix in="SourceAlpha" type="matrix" values="0 0 0 0 0 0 0 0 0 0 0 0 0 0 0 0 0 0 127 0" result="hardAlpha"/>
<feOffset dx="2" dy="-2"/>
<feComposite in2="hardAlpha" operator="out"/>
<feColorMatrix type="matrix" values="0 0 0 0 0.92549 0 0 0 0 0.92549 0 0 0 0 0.92549 0 0 0 1 0"/>
<feBlend mode="normal" in2="effect3_dropShadow_23_17" result="effect4_dropShadow_23_17"/>
<feBlend mode="normal" in="SourceGraphic" in2="effect4_dropShadow_23_17" result="shape"/>
<feTurbulence type="fractalNoise" baseFrequency="0.99900001287460327 0.99900001287460327" numOctaves="3" seed="2025" />
<feDisplacementMap in="shape" scale="2" xChannelSelector="R" yChannelSelector="G" result="displacedImage" width="100%" height="100%" />
<feMerge result="effect5_texture_23_17">
<feMergeNode in="displacedImage"/>
</feMerge>
</filter>
<filter id="filter5_g_23_17" x="124" y="74" width="10.2726" height="21.4467" filterUnits="userSpaceOnUse" color-interpolation-filters="sRGB">
<feFlood flood-opacity="0" result="BackgroundImageFix"/>
<feBlend mode="normal" in="SourceGraphic" in2="BackgroundImageFix" result="shape"/>
<feTurbulence type="fractalNoise" baseFrequency="0.99900001287460327 0.99900001287460327" numOctaves="3" seed="724" />
<feDisplacementMap in="shape" scale="2" xChannelSelector="R" yChannelSelector="G" result="displacedImage" width="100%" height="100%" />
<feMerge result="effect1_texture_23_17">
<feMergeNode in="displacedImage"/>
</feMerge>
</filter>
<filter id="filter6_g_23_17" x="126.689" y="75.472" width="5.45599" height="17.7679" filterUnits="userSpaceOnUse" color-interpolation-filters="sRGB">
<feFlood flood-opacity="0" result="BackgroundImageFix"/>
<feBlend mode="normal" in="SourceGraphic" in2="BackgroundImageFix" result="shape"/>
<feTurbulence type="fractalNoise" baseFrequency="0.99900001287460327 0.99900001287460327" numOctaves="3" seed="2025" />
<feDisplacementMap in="shape" scale="2" xChannelSelector="R" yChannelSelector="G" result="displacedImage" width="100%" height="100%" />
<feMerge result="effect1_texture_23_17">
<feMergeNode in="displacedImage"/>
</feMerge>
</filter>
<clipPath id="clip0_23_17">
<rect width="146" height="97" fill="white"/>
</clipPath>
</defs>
</svg>
