<svg width="77" height="47" viewBox="0 0 77 47" fill="none" xmlns="http://www.w3.org/2000/svg">
<path d="M5.26795 17.2919C8.86795 15.2919 22.1013 14.4586 28.268 14.2919C35.6013 13.4586 52.7679 12.2919 62.7679 14.2919C75.2679 16.7919 74.2679 19.7919 74.7679 23.7919C75.2679 27.7919 69.2679 28.2919 65.7679 28.7919C62.2679 29.2919 60.2679 24.7919 60.2679 35.7919C61.7679 44.2919 55.2679 46.7919 52.7679 42.2919C50.2679 37.7919 48.7679 27.2919 41.7679 27.2919C34.7679 27.2919 24.268 26.2919 11.768 27.2919C-0.732048 28.2919 0.767952 19.7919 5.26795 17.2919Z" fill="white" stroke="#3F3F3F" stroke-width="4"/>
<path d="M39.0004 3.68759C32.6004 6.08759 33.0004 11.1876 34.0004 13.6876L45.5004 12.6876L57.0004 13.1876C57.667 12.5209 58.1004 10.6876 56.5004 6.68759C54.5004 1.68759 47.0004 0.687592 39.0004 3.68759Z" fill="#FF9000" stroke="#3F3F3F" stroke-width="4"/>
<path d="M51.364 7.3989C51.364 7.3989 50.7444 6.58768 49.8586 6.30884C48.9729 6.03001 48.0003 6.34002 48.0003 6.34002" stroke="white" stroke-width="4" stroke-linecap="round"/>
</svg>
