<svg width="47" height="25" viewBox="0 0 47 25" fill="none" xmlns="http://www.w3.org/2000/svg">
<path d="M22.9679 0.207074L0.644246 11.6395C0.44529 11.7417 0.283117 11.8762 0.171102 12.0321C0.059088 12.188 0.000441327 12.3606 -5.44822e-07 12.5359L-5.44707e-07 12.5385C0.000512978 12.7145 0.0596799 12.8878 0.172584 13.0441C0.285488 13.2004 0.448869 13.3352 0.649151 13.4372L22.9728 24.7959C23.2035 24.9134 23.4751 24.9831 23.7576 24.9973C24.0401 25.0115 24.3226 24.9696 24.5739 24.8762C24.8256 24.7834 25.0367 24.6427 25.1839 24.4696C25.3311 24.2965 25.4087 24.0977 25.4082 23.8951L25.4082 18.5494L45.4583 18.5498C45.6609 18.5499 45.8614 18.5214 46.0485 18.4659C46.2357 18.4104 46.4057 18.3291 46.5489 18.2266C46.692 18.1241 46.8056 18.0023 46.883 17.8684C46.9604 17.7344 47.0002 17.5908 47 17.4459L46.9994 7.55532C46.9995 7.41029 46.9596 7.26668 46.8821 7.13268C46.8046 6.99869 46.6909 6.87694 46.5476 6.77441C46.4043 6.67188 46.2342 6.59058 46.047 6.53514C45.8598 6.47971 45.6591 6.45124 45.4565 6.45135L25.4088 6.45135L25.4088 1.10394C25.4088 0.691486 25.084 0.312819 24.5709 0.122389C24.3188 0.0293666 24.0356 -0.0119555 23.7527 0.00298912C23.4698 0.0179338 23.1982 0.0885637 22.9679 0.207074Z" fill="#03FE0A"/>
</svg>
