<svg width="24" height="17" viewBox="0 0 24 17" fill="none" xmlns="http://www.w3.org/2000/svg">
<path d="M18.7636 10.2436C18.7636 10.417 18.6947 10.5833 18.5719 10.7059C18.4492 10.8285 18.2827 10.8974 18.1091 10.8974H17.0182V11.9872C17.0182 12.1606 16.9492 12.3269 16.8265 12.4495C16.7037 12.5721 16.5372 12.641 16.3636 12.641C16.19 12.641 16.0236 12.5721 15.9008 12.4495C15.7781 12.3269 15.7091 12.1606 15.7091 11.9872V10.8974H14.6182C14.4446 10.8974 14.2781 10.8285 14.1553 10.7059C14.0326 10.5833 13.9636 10.417 13.9636 10.2436C13.9636 10.0702 14.0326 9.90387 14.1553 9.78125C14.2781 9.65863 14.4446 9.58974 14.6182 9.58974H15.7091V8.5C15.7091 8.32659 15.7781 8.16028 15.9008 8.03766C16.0236 7.91504 16.19 7.84615 16.3636 7.84615C16.5372 7.84615 16.7037 7.91504 16.8265 8.03766C16.9492 8.16028 17.0182 8.32659 17.0182 8.5V9.58974H18.1091C18.2827 9.58974 18.4492 9.65863 18.5719 9.78125C18.6947 9.90387 18.7636 10.0702 18.7636 10.2436ZM9.38182 9.58974H5.89091C5.71731 9.58974 5.55083 9.65863 5.42808 9.78125C5.30533 9.90387 5.23636 10.0702 5.23636 10.2436C5.23636 10.417 5.30533 10.5833 5.42808 10.7059C5.55083 10.8285 5.71731 10.8974 5.89091 10.8974H9.38182C9.55541 10.8974 9.7219 10.8285 9.84465 10.7059C9.9674 10.5833 10.0364 10.417 10.0364 10.2436C10.0364 10.0702 9.9674 9.90387 9.84465 9.78125C9.7219 9.65863 9.55541 9.58974 9.38182 9.58974ZM24 5.01282V15.4744C24 15.879 23.8391 16.267 23.5527 16.5532C23.2663 16.8393 22.8778 17 22.4727 17H1.52727C1.12221 17 0.733747 16.8393 0.447328 16.5532C0.160909 16.267 0 15.879 0 15.4744V5.01282C0 4.6082 0.160909 4.22014 0.447328 3.93403C0.733747 3.64792 1.12221 3.48718 1.52727 3.48718H3.49091V1.52564C3.49091 1.12102 3.65182 0.732963 3.93824 0.44685C4.22466 0.160737 4.61312 0 5.01818 0H8.50909C8.91415 0 9.30262 0.160737 9.58904 0.44685C9.87545 0.732963 10.0364 1.12102 10.0364 1.52564V3.48718H13.9636V1.52564C13.9636 1.12102 14.1245 0.732963 14.411 0.44685C14.6974 0.160737 15.0859 0 15.4909 0H18.9818C19.3869 0 19.7753 0.160737 20.0618 0.44685C20.3482 0.732963 20.5091 1.12102 20.5091 1.52564V3.48718H22.4727C22.8778 3.48718 23.2663 3.64792 23.5527 3.93403C23.8391 4.22014 24 4.6082 24 5.01282ZM15.2727 3.48718H19.2V1.52564C19.2 1.46784 19.177 1.4124 19.1361 1.37153C19.0952 1.33065 19.0397 1.30769 18.9818 1.30769H15.4909C15.433 1.30769 15.3775 1.33065 15.3366 1.37153C15.2957 1.4124 15.2727 1.46784 15.2727 1.52564V3.48718ZM4.8 3.48718H8.72727V1.52564C8.72727 1.46784 8.70429 1.4124 8.66337 1.37153C8.62245 1.33065 8.56696 1.30769 8.50909 1.30769H5.01818C4.96032 1.30769 4.90482 1.33065 4.8639 1.37153C4.82299 1.4124 4.8 1.46784 4.8 1.52564V3.48718ZM22.6909 5.01282C22.6909 4.95502 22.6679 4.89958 22.627 4.85871C22.5861 4.81783 22.5306 4.79487 22.4727 4.79487H1.52727C1.46941 4.79487 1.41391 4.81783 1.37299 4.85871C1.33208 4.89958 1.30909 4.95502 1.30909 5.01282V15.4744C1.30909 15.5322 1.33208 15.5876 1.37299 15.6285C1.41391 15.6693 1.46941 15.6923 1.52727 15.6923H22.4727C22.5306 15.6923 22.5861 15.6693 22.627 15.6285C22.6679 15.5876 22.6909 15.5322 22.6909 15.4744V5.01282Z" fill="#BEBEBE"/>
</svg>
