<svg width="25" height="13" viewBox="0 0 25 13" fill="none" xmlns="http://www.w3.org/2000/svg">
<path d="M8.33333 0V1.625H10V3.25H5.46833L4.03667 1.16756L3.775 0.8125H0V5.434L4.16667 7.059V13H16.2758L16.5108 12.6441L23.75 2.4375H25V0.8125H22.2133L22.005 0.96525L16.6667 4.875V3.25H11.6667V1.625H13.3333V0H8.33333ZM1.66667 2.4375H2.865L4.16667 4.342V5.28125L1.66667 4.316V2.4375ZM20.6508 4.01213L15.4167 11.375H5.83333V4.875H15V8.125L16.3283 7.15975L20.6508 4.01213ZM23.75 5.6875C23.75 5.6875 22.5 7.8585 22.5 8.53125C22.5 8.85448 22.6317 9.16448 22.8661 9.39304C23.1005 9.6216 23.4185 9.75 23.75 9.75C24.0815 9.75 24.3995 9.6216 24.6339 9.39304C24.8683 9.16448 25 8.85448 25 8.53125C25 7.8585 23.75 5.6875 23.75 5.6875Z" fill="#BEBEBE"/>
</svg>
