<svg width="23" height="17" viewBox="0 0 23 17" fill="none" xmlns="http://www.w3.org/2000/svg">
<path d="M10.5417 11.3333H12.4583V13.2222H10.5417V11.3333ZM10.5417 3.77778H12.4583V9.44444H10.5417V3.77778ZM11.5 0C9.21251 0 7.0187 0.895533 5.4012 2.48959C3.7837 4.08365 2.875 6.24566 2.875 8.5C2.875 10.7543 3.7837 12.9163 5.4012 14.5104C7.0187 16.1045 9.21251 17 11.5 17C13.7875 17 15.9813 16.1045 17.5988 14.5104C19.2163 12.9163 20.125 10.7543 20.125 8.5C20.125 6.24566 19.2163 4.08365 17.5988 2.48959C15.9813 0.895533 13.7875 0 11.5 0ZM11.5 15.1111C7.80083 15.1111 4.79167 12.1456 4.79167 8.5C4.79167 4.85444 7.80083 1.88889 11.5 1.88889C15.1992 1.88889 18.2083 4.85444 18.2083 8.5C18.2083 12.1456 15.1992 15.1111 11.5 15.1111ZM19.6458 16.5278C21.7158 14.4594 23 11.6261 23 8.5C23 5.37389 21.7158 2.54056 19.6458 0.472222L18.6108 1.49222C20.4317 3.30556 21.5625 5.77056 21.5625 8.5C21.5625 11.2389 20.4317 13.6944 18.6108 15.5078L19.6458 16.5278ZM4.38917 15.5078C2.56833 13.6944 1.4375 11.2389 1.4375 8.5C1.4375 5.77056 2.56833 3.30556 4.38917 1.49222L3.35417 0.472222C1.28417 2.54056 0 5.37389 0 8.5C0 11.6261 1.28417 14.4594 3.35417 16.5278L4.38917 15.5078Z" fill="#BEBEBE"/>
</svg>
