<svg width="21" height="15" viewBox="0 0 21 15" fill="none" xmlns="http://www.w3.org/2000/svg">
<path d="M11.597 0C7.41791 0 7.41791 15 11.597 15C15.7761 15 21 12.1875 21 7.5C21 2.8125 15.7761 0 11.597 0ZM11.7015 12.9167C11.2836 12.5 10.5522 10.625 10.5522 7.5C10.5522 4.375 11.2836 2.5 11.7015 2.08333C14.7313 2.1875 18.9104 4.0625 18.9104 7.5C18.9104 10.9375 14.6269 12.8125 11.7015 12.9167ZM6.37313 5.9375C6.37313 6.45833 6.26866 6.97917 6.26866 7.5V8.125L0.522388 9.58333L0 7.60417L6.37313 5.9375ZM0.104478 2.29167L7.83582 0.3125C7.62686 0.625 7.41791 1.04167 7.31343 1.5625C7.20895 1.875 7.10448 2.29167 7 2.70833L0.626866 4.27083L0.104478 2.29167ZM6.58209 11.1458C6.68657 11.875 6.89552 12.6042 7.10448 13.125L0.522388 14.7917L0 12.8125L6.58209 11.1458Z" fill="#BEBEBE"/>
</svg>
