<svg width="24" height="18" viewBox="0 0 24 18" fill="none" xmlns="http://www.w3.org/2000/svg">
<path d="M1 6.71429V13.5714M12 1V4.42857M9.55556 1H14.4444M3.44444 10.1429H1M4.66667 6.71429H7.11111L9.55556 4.42857H13.6891C13.916 4.42868 14.1384 4.48787 14.3314 4.59949C14.5244 4.71111 14.6803 4.87077 14.7818 5.06057L16.5516 8.368C16.653 8.55781 16.8089 8.71746 17.0019 8.82908C17.1949 8.94071 17.4173 8.99989 17.6442 9H19.3333V6.71429H21.7778C22.1019 6.71429 22.4128 6.83469 22.642 7.04902C22.8712 7.26335 23 7.55404 23 7.85714V14.7143C23 15.0174 22.8712 15.3081 22.642 15.5224C22.4128 15.7367 22.1019 15.8571 21.7778 15.8571H19.3333V13.5714H15.6667V15.8571C15.6667 16.1602 15.5379 16.4509 15.3087 16.6653C15.0795 16.8796 14.7686 17 14.4444 17H10.2094C10.0083 17 9.81021 16.9536 9.63282 16.8649C9.45543 16.7762 9.3042 16.6479 9.19256 16.4914L7.11111 13.5714H4.66667V6.71429Z" stroke="#BEBEBE" stroke-width="2" stroke-linecap="round" stroke-linejoin="round"/>
</svg>
