<svg width="17" height="17" viewBox="0 0 17 17" fill="none" xmlns="http://www.w3.org/2000/svg">
<path d="M7.65 9.35H9.35V11.05H7.65V9.35ZM7.65 2.55H9.35V7.65H7.65V2.55ZM12.75 2.346C14.331 3.5615 15.3 5.6185 15.3 7.65C15.2989 8.86579 14.9719 10.0591 14.353 11.1055C13.7341 12.152 12.8459 13.0134 11.781 13.6H5.219C4.1541 13.0134 3.26594 12.152 2.64703 11.1055C2.02812 10.0591 1.70109 8.86579 1.7 7.65C1.7 5.6185 2.6265 3.5445 4.25 2.346V0H2.55V1.581C0.9775 3.128 0 5.27 0 7.65C0 10.03 0.9775 12.172 2.55 13.719V17H4.25V15.3H5.95V17H7.65V15.3H9.35V17H11.05V15.3H12.75V17H14.45V13.719C16.0225 12.172 17 10.03 17 7.65C17 5.27 16.0225 3.128 14.45 1.581V0H12.75V2.346Z" fill="#BEBEBE"/>
</svg>
