<svg width="411" height="198" viewBox="0 0 411 198" fill="none" xmlns="http://www.w3.org/2000/svg">
<g clip-path="url(#clip0_56_1307)">
<path d="M411 205.5C411 150.998 389.349 98.7283 350.81 60.1896C312.272 21.6508 260.002 4.11479e-06 205.5 0C150.998 -4.11478e-06 98.7283 21.6508 60.1896 60.1895C21.6508 98.7283 8.22957e-06 150.998 0 205.5L205.5 205.5H411Z" fill="#0D0D0D"/>
<path d="M34.0881 190.355C32.8191 190.355 31.7254 190.054 30.8068 189.453C29.8883 188.847 29.1804 187.978 28.6832 186.847C28.1861 185.71 27.9399 184.344 27.9446 182.749C27.9493 181.153 28.1979 179.799 28.6903 178.686C29.1875 177.569 29.893 176.719 30.8068 176.136C31.7254 175.549 32.8191 175.256 34.0881 175.256C35.357 175.256 36.4508 175.549 37.3693 176.136C38.2926 176.719 39.0028 177.569 39.5 178.686C39.9972 179.804 40.2434 181.158 40.2386 182.749C40.2386 184.349 39.9901 185.717 39.4929 186.854C38.9957 187.99 38.2879 188.859 37.3693 189.46C36.4555 190.057 35.3617 190.355 34.0881 190.355ZM34.0881 187.479C34.8456 187.479 35.4588 187.093 35.9276 186.321C36.3963 185.545 36.6283 184.354 36.6236 182.749C36.6236 181.697 36.517 180.831 36.304 180.149C36.0909 179.463 35.795 178.951 35.4162 178.615C35.0374 178.279 34.5947 178.111 34.0881 178.111C33.3352 178.111 32.7268 178.492 32.2628 179.254C31.7988 180.012 31.5644 181.177 31.5597 182.749C31.5549 183.814 31.6567 184.697 31.8651 185.398C32.0781 186.098 32.3764 186.622 32.7599 186.967C33.1435 187.308 33.5862 187.479 34.0881 187.479Z" fill="#BEBEBE"/>
<path d="M194.072 40V37.4716L199.378 32.8267C199.776 32.4669 200.114 32.1378 200.393 31.8395C200.673 31.5365 200.886 31.2334 201.033 30.9304C201.179 30.6226 201.253 30.2888 201.253 29.929C201.253 29.5265 201.165 29.1832 200.99 28.8991C200.815 28.6103 200.573 28.3878 200.266 28.2315C199.958 28.0753 199.605 27.9972 199.207 27.9972C198.805 27.9972 198.452 28.08 198.149 28.2457C197.846 28.4067 197.609 28.6411 197.439 28.9489C197.273 29.2566 197.19 29.6307 197.19 30.071H193.859C193.859 29.0814 194.082 28.2268 194.527 27.5071C194.972 26.7874 195.597 26.2334 196.402 25.8452C197.212 25.4522 198.152 25.2557 199.222 25.2557C200.325 25.2557 201.284 25.4403 202.098 25.8097C202.912 26.179 203.542 26.6951 203.987 27.358C204.437 28.0161 204.662 28.7808 204.662 29.652C204.662 30.206 204.551 30.7552 204.328 31.2997C204.106 31.8442 203.705 32.4455 203.128 33.1037C202.555 33.7618 201.741 34.5502 200.685 35.4688L198.945 37.0739V37.1662H204.839V40H194.072ZM212.395 40.1989C211.334 40.1989 210.392 40.0071 209.568 39.6236C208.744 39.2401 208.093 38.7121 207.615 38.0398C207.141 37.3674 206.895 36.5956 206.876 35.7244H210.285C210.314 36.2595 210.531 36.6903 210.939 37.017C211.346 37.339 211.831 37.5 212.395 37.5C212.835 37.5 213.225 37.4029 213.566 37.2088C213.907 37.0147 214.175 36.7424 214.369 36.392C214.563 36.0369 214.658 35.6297 214.653 35.1705C214.658 34.7017 214.561 34.2921 214.362 33.9418C214.168 33.5914 213.898 33.3191 213.552 33.125C213.211 32.9261 212.818 32.8267 212.373 32.8267C211.952 32.822 211.552 32.9143 211.173 33.1037C210.799 33.2931 210.515 33.5511 210.321 33.8778L207.217 33.2955L207.849 25.4545H217.181V28.2884H210.74L210.406 31.7188H210.491C210.733 31.3163 211.121 30.9848 211.656 30.7244C212.196 30.4593 212.809 30.3267 213.495 30.3267C214.367 30.3267 215.143 30.5303 215.825 30.9375C216.511 31.34 217.051 31.8987 217.444 32.6136C217.842 33.3286 218.041 34.1477 218.041 35.071C218.041 36.0701 217.804 36.9555 217.331 37.7273C216.862 38.4991 216.204 39.1051 215.356 39.5455C214.513 39.9811 213.526 40.1989 212.395 40.1989Z" fill="#BEBEBE"/>
<path d="M365.641 191.199C364.58 191.199 363.638 191.007 362.814 190.624C361.99 190.24 361.339 189.712 360.861 189.04C360.387 188.367 360.141 187.596 360.122 186.724H363.531C363.56 187.259 363.777 187.69 364.185 188.017C364.592 188.339 365.077 188.5 365.641 188.5C366.081 188.5 366.472 188.403 366.812 188.209C367.153 188.015 367.421 187.742 367.615 187.392C367.809 187.037 367.904 186.63 367.899 186.17C367.904 185.702 367.807 185.292 367.608 184.942C367.414 184.591 367.144 184.319 366.798 184.125C366.457 183.926 366.064 183.827 365.619 183.827C365.198 183.822 364.798 183.914 364.419 184.104C364.045 184.293 363.761 184.551 363.567 184.878L360.463 184.295L361.095 176.455H370.428V179.288H363.986L363.652 182.719H363.737C363.979 182.316 364.367 181.985 364.902 181.724C365.442 181.459 366.055 181.327 366.741 181.327C367.613 181.327 368.389 181.53 369.071 181.938C369.758 182.34 370.297 182.899 370.69 183.614C371.088 184.329 371.287 185.148 371.287 186.071C371.287 187.07 371.05 187.955 370.577 188.727C370.108 189.499 369.45 190.105 368.602 190.545C367.759 190.981 366.772 191.199 365.641 191.199ZM379.233 191.355C377.964 191.355 376.87 191.054 375.951 190.453C375.033 189.847 374.325 188.978 373.828 187.847C373.331 186.71 373.084 185.344 373.089 183.749C373.094 182.153 373.342 180.799 373.835 179.686C374.332 178.569 375.038 177.719 375.951 177.136C376.87 176.549 377.964 176.256 379.233 176.256C380.502 176.256 381.595 176.549 382.514 177.136C383.437 177.719 384.147 178.569 384.645 179.686C385.142 180.804 385.388 182.158 385.383 183.749C385.383 185.349 385.135 186.717 384.637 187.854C384.14 188.99 383.432 189.859 382.514 190.46C381.6 191.057 380.506 191.355 379.233 191.355ZM379.233 188.479C379.99 188.479 380.603 188.093 381.072 187.321C381.541 186.545 381.773 185.354 381.768 183.749C381.768 182.697 381.662 181.831 381.449 181.149C381.235 180.463 380.94 179.951 380.561 179.615C380.182 179.279 379.739 179.111 379.233 179.111C378.48 179.111 377.871 179.492 377.407 180.254C376.943 181.012 376.709 182.177 376.704 183.749C376.699 184.814 376.801 185.697 377.01 186.398C377.223 187.098 377.521 187.622 377.904 187.967C378.288 188.308 378.731 188.479 379.233 188.479Z" fill="#BEBEBE"/>
<path d="M86.7983 75.4545V90H83.2898V78.7358H83.2045L79.9517 80.7244V77.6847L83.5384 75.4545H86.7983ZM90.0138 90V87.4716L95.3192 82.8267C95.717 82.4669 96.0555 82.1378 96.3349 81.8395C96.6142 81.5365 96.8273 81.2334 96.9741 80.9304C97.1209 80.6226 97.1942 80.2888 97.1942 79.929C97.1942 79.5265 97.1067 79.1832 96.9315 78.8991C96.7563 78.6103 96.5148 78.3878 96.207 78.2315C95.8993 78.0753 95.5465 77.9972 95.1488 77.9972C94.7463 77.9972 94.3936 78.08 94.0906 78.2457C93.7875 78.4067 93.5508 78.6411 93.3803 78.9489C93.2146 79.2566 93.1317 79.6307 93.1317 80.071H89.8008C89.8008 79.0814 90.0233 78.2268 90.4684 77.5071C90.9135 76.7874 91.5385 76.2334 92.3434 75.8452C93.1531 75.4522 94.0929 75.2557 95.163 75.2557C96.2662 75.2557 97.225 75.4403 98.0394 75.8097C98.8538 76.179 99.4835 76.6951 99.9286 77.358C100.378 78.0161 100.603 78.7808 100.603 79.652C100.603 80.206 100.492 80.7552 100.27 81.2997C100.047 81.8442 99.6469 82.4455 99.0692 83.1037C98.4963 83.7618 97.6819 84.5502 96.6261 85.4688L94.886 87.0739V87.1662H100.781V90H90.0138ZM104.749 90.206C104.238 90.206 103.8 90.026 103.435 89.6662C103.076 89.3063 102.898 88.8707 102.903 88.3594C102.898 87.8575 103.076 87.429 103.435 87.0739C103.8 86.714 104.238 86.5341 104.749 86.5341C105.232 86.5341 105.658 86.714 106.028 87.0739C106.402 87.429 106.591 87.8575 106.596 88.3594C106.591 88.7003 106.501 89.0104 106.326 89.2898C106.156 89.5691 105.931 89.7917 105.651 89.9574C105.377 90.1231 105.076 90.206 104.749 90.206ZM114.371 90.1989C113.31 90.1989 112.368 90.0071 111.544 89.6236C110.721 89.2401 110.069 88.7121 109.591 88.0398C109.118 87.3674 108.872 86.5956 108.853 85.7244H112.262C112.29 86.2595 112.508 86.6903 112.915 87.017C113.322 87.339 113.808 87.5 114.371 87.5C114.811 87.5 115.202 87.4029 115.543 87.2088C115.884 87.0147 116.151 86.7424 116.346 86.392C116.54 86.0369 116.634 85.6297 116.63 85.1705C116.634 84.7017 116.537 84.2921 116.338 83.9418C116.144 83.5914 115.874 83.3191 115.529 83.125C115.188 82.9261 114.795 82.8267 114.35 82.8267C113.928 82.822 113.528 82.9143 113.15 83.1037C112.775 83.2931 112.491 83.5511 112.297 83.8778L109.194 83.2955L109.826 75.4545H119.158V78.2884H112.716L112.382 81.7188H112.468C112.709 81.3163 113.097 80.9848 113.632 80.7244C114.172 80.4593 114.785 80.3267 115.472 80.3267C116.343 80.3267 117.12 80.5303 117.801 80.9375C118.488 81.34 119.028 81.8987 119.421 82.6136C119.819 83.3286 120.017 84.1477 120.017 85.071C120.017 86.0701 119.781 86.9555 119.307 87.7273C118.838 88.4991 118.18 89.1051 117.333 89.5455C116.49 89.9811 115.503 90.1989 114.371 90.1989Z" fill="#BEBEBE"/>
<path d="M295.605 90.1989C294.497 90.1989 293.515 90.0095 292.658 89.6307C291.805 89.2472 291.133 88.7192 290.641 88.0469C290.148 87.3745 289.897 86.6004 289.888 85.7244H293.425C293.439 86.0417 293.541 86.3234 293.73 86.5696C293.92 86.8111 294.178 87.0005 294.504 87.1378C294.831 87.2751 295.203 87.3438 295.619 87.3438C296.036 87.3438 296.403 87.2704 296.72 87.1236C297.042 86.9721 297.293 86.7661 297.473 86.5057C297.653 86.2405 297.741 85.9375 297.736 85.5966C297.741 85.2557 297.643 84.9527 297.445 84.6875C297.246 84.4223 296.964 84.2164 296.599 84.0696C296.24 83.9228 295.813 83.8494 295.321 83.8494H293.908V81.3494H295.321C295.752 81.3494 296.131 81.2784 296.457 81.1364C296.789 80.9943 297.047 80.7955 297.232 80.5398C297.416 80.2794 297.506 79.9811 297.501 79.6449C297.506 79.3182 297.428 79.0317 297.267 78.7855C297.111 78.5346 296.891 78.3404 296.607 78.2031C296.327 78.0658 296.003 77.9972 295.634 77.9972C295.245 77.9972 294.893 78.0658 294.575 78.2031C294.263 78.3404 294.014 78.5346 293.83 78.7855C293.645 79.0365 293.548 79.3277 293.538 79.6591H290.179C290.188 78.7926 290.43 78.0303 290.903 77.3722C291.377 76.7093 292.021 76.1908 292.835 75.8168C293.654 75.4427 294.587 75.2557 295.634 75.2557C296.675 75.2557 297.591 75.438 298.382 75.8026C299.173 76.1671 299.788 76.6643 300.229 77.294C300.669 77.919 300.889 78.6269 300.889 79.4176C300.894 80.2367 300.626 80.9115 300.087 81.4418C299.552 81.9721 298.863 82.2988 298.02 82.4219V82.5355C299.147 82.6681 299.997 83.0327 300.57 83.6293C301.147 84.2259 301.434 84.9716 301.429 85.8665C301.429 86.7093 301.18 87.4574 300.683 88.1108C300.191 88.7595 299.504 89.2708 298.624 89.6449C297.748 90.0142 296.741 90.1989 295.605 90.1989ZM304.03 90L309.897 78.3807V78.2884H303.036V75.4545H313.533V78.3097L307.645 90H304.03ZM314.945 90.206C314.433 90.206 313.995 90.026 313.631 89.6662C313.271 89.3063 313.093 88.8707 313.098 88.3594C313.093 87.8575 313.271 87.429 313.631 87.0739C313.995 86.714 314.433 86.5341 314.945 86.5341C315.428 86.5341 315.854 86.714 316.223 87.0739C316.597 87.429 316.786 87.8575 316.791 88.3594C316.786 88.7003 316.696 89.0104 316.521 89.2898C316.351 89.5691 316.126 89.7917 315.847 89.9574C315.572 90.1231 315.271 90.206 314.945 90.206ZM324.566 90.1989C323.506 90.1989 322.564 90.0071 321.74 89.6236C320.916 89.2401 320.265 88.7121 319.787 88.0398C319.313 87.3674 319.067 86.5956 319.048 85.7244H322.457C322.485 86.2595 322.703 86.6903 323.11 87.017C323.518 87.339 324.003 87.5 324.566 87.5C325.007 87.5 325.397 87.4029 325.738 87.2088C326.079 87.0147 326.347 86.7424 326.541 86.392C326.735 86.0369 326.83 85.6297 326.825 85.1705C326.83 84.7017 326.733 84.2921 326.534 83.9418C326.34 83.5914 326.07 83.3191 325.724 83.125C325.383 82.9261 324.99 82.8267 324.545 82.8267C324.124 82.822 323.724 82.9143 323.345 83.1037C322.971 83.2931 322.687 83.5511 322.493 83.8778L319.389 83.2955L320.021 75.4545H329.353V78.2884H322.912L322.578 81.7188H322.663C322.904 81.3163 323.293 80.9848 323.828 80.7244C324.368 80.4593 324.981 80.3267 325.667 80.3267C326.538 80.3267 327.315 80.5303 327.997 80.9375C328.683 81.34 329.223 81.8987 329.616 82.6136C330.014 83.3286 330.213 84.1477 330.213 85.071C330.213 86.0701 329.976 86.9555 329.502 87.7273C329.034 88.4991 328.376 89.1051 327.528 89.5455C326.685 89.9811 325.698 90.1989 324.566 90.1989Z" fill="#BEBEBE"/>
<path d="M69 61L80.3137 72.3137" stroke="#BEBEBE" stroke-width="5"/>
<path d="M342.143 61L330.829 72.3137" stroke="#BEBEBE" stroke-width="5"/>
<path d="M128 23L134.762 37.5009" stroke="#BEBEBE" stroke-width="5"/>
<path d="M283.143 23L276.381 37.5009" stroke="#BEBEBE" stroke-width="5"/>
<path d="M27 117L41.5009 123.762" stroke="#BEBEBE" stroke-width="5"/>
<path d="M14 151L29.7993 153.526" stroke="#BEBEBE" stroke-width="2"/>
<path d="M396.4 150.842L380.601 153.368" stroke="#BEBEBE" stroke-width="2"/>
<path d="M45 87L58.1441 96.1232" stroke="#BEBEBE" stroke-width="2"/>
<path d="M365.4 86.8418L352.256 95.965" stroke="#BEBEBE" stroke-width="2"/>
<path d="M95 40L105.087 52.4198" stroke="#BEBEBE" stroke-width="2"/>
<path d="M315.4 39.8418L305.313 52.2616" stroke="#BEBEBE" stroke-width="2"/>
<path d="M384.143 117L369.642 123.762" stroke="#BEBEBE" stroke-width="5"/>
<path d="M8 184.199L23.955 183" stroke="#BEBEBE" stroke-width="5"/>
<path d="M402.955 185.199L387 184" stroke="#BEBEBE" stroke-width="5"/>
<path d="M206 6L206 22" stroke="#BEBEBE" stroke-width="5"/>
<path d="M163.446 11.1582L168.4 26.3717" stroke="#BEBEBE" stroke-width="2"/>
<path d="M246.955 11L242 26.2135" stroke="#BEBEBE" stroke-width="2"/>
<mask id="path-24-inside-1_56_1307" fill="white">
<path d="M411 205.5C411 150.998 389.349 98.7283 350.81 60.1896C312.272 21.6508 260.002 4.11479e-06 205.5 0C150.998 -4.11478e-06 98.7283 21.6508 60.1896 60.1895C21.6508 98.7283 8.22957e-06 150.998 0 205.5L205.5 205.5H411Z"/>
</mask>
<path d="M411 205.5C411 150.998 389.349 98.7283 350.81 60.1896C312.272 21.6508 260.002 4.11479e-06 205.5 0C150.998 -4.11478e-06 98.7283 21.6508 60.1896 60.1895C21.6508 98.7283 8.22957e-06 150.998 0 205.5L205.5 205.5H411Z" stroke="#FF0000" stroke-width="14" mask="url(#path-24-inside-1_56_1307)"/>
</g>
<defs>
<clipPath id="clip0_56_1307">
<rect width="411" height="198" fill="white"/>
</clipPath>
</defs>
</svg>
