<svg width="185" height="132" viewBox="0 0 185 132" fill="none" xmlns="http://www.w3.org/2000/svg">
<path d="M92.5 0C143.586 0 185 41.4137 185 92.5C185 106.631 181.83 120.021 176.164 132H8.83594C3.17038 120.021 0 106.631 0 92.5C0 41.4137 41.4137 0 92.5 0Z" fill="#0D0D0D"/>
<path d="M5 102.945L13.7896 101" stroke="#BEBEBE" stroke-width="5"/>
<path d="M179.542 102.945L170.752 101" stroke="#BEBEBE" stroke-width="5"/>
<path d="M93 4L93 13.0022" stroke="#BEBEBE" stroke-width="5"/>
<path d="M22 40L29.0764 45.5645" stroke="#BEBEBE" stroke-width="5"/>
<path d="M162.542 40L155.465 45.5645" stroke="#BEBEBE" stroke-width="5"/>
<path d="M7.76489 69.5959L16.3562 72.2847" stroke="#BEBEBE" stroke-width="2"/>
<path d="M176.777 69.5959L168.185 72.2847" stroke="#BEBEBE" stroke-width="2"/>
<path d="M51 15L55.5415 22.7726" stroke="#BEBEBE" stroke-width="2"/>
<path d="M133.542 15L129 22.7726" stroke="#BEBEBE" stroke-width="2"/>
<path d="M92.5 0C143.586 0 185 41.4137 185 92.5C185 106.581 181.852 119.926 176.224 131.873C175.288 129.975 174.29 128.114 173.234 126.291C177.591 115.894 180 104.479 180 92.5C180 44.1751 140.825 5 92.5 5C44.1751 5 5 44.1751 5 92.5C5 103.715 7.11075 114.436 10.9551 124.29C9.85469 126.088 8.81106 127.925 7.8291 129.8C2.79558 118.39 0 105.772 0 92.5C0 41.4137 41.4137 0 92.5 0Z" fill="#FF0000"/>
<path d="M87.3198 110.757C87.3198 109.236 88.5563 108 90.0772 108H96.9706C98.4914 108 99.7279 109.236 99.7279 110.757V119.027H100.073C102.166 119.027 103.864 120.724 103.864 122.818V124.196C103.864 124.769 104.325 125.23 104.898 125.23C105.471 125.23 105.932 124.769 105.932 124.196V117.563C104.743 117.257 103.864 116.176 103.864 114.892V112.135L102.485 110.757C102.106 110.378 102.106 109.757 102.485 109.378C102.864 108.999 103.485 108.999 103.864 109.378L107.194 112.708C107.711 113.225 108 113.927 108 114.659V124.201C108 125.915 106.613 127.302 104.898 127.302C103.183 127.302 101.796 125.915 101.796 124.201V122.822C101.796 121.87 101.025 121.099 100.073 121.099H99.7279V127.302C100.491 127.302 101.107 127.918 101.107 128.68C101.107 129.443 100.491 130.059 99.7279 130.059L87.3198 130.055C86.5573 130.055 85.9412 129.439 85.9412 128.676C85.9412 127.914 86.5573 127.298 87.3198 127.298V110.757ZM90.0772 111.446V115.581C90.0772 115.96 90.3874 116.27 90.7665 116.27H96.2812C96.6604 116.27 96.9706 115.96 96.9706 115.581V111.446C96.9706 111.067 96.6604 110.757 96.2812 110.757H90.7665C90.3874 110.757 90.0772 111.067 90.0772 111.446Z" fill="#BEBEBE"/>
<path d="M78 119.471L83.2941 114.122L83.2941 124.82L78 119.471Z" fill="#BEBEBE"/>
<path d="M16.7156 105V95.5455H23.3079V97.4013H19.0007V99.3402H22.9709V101.201H19.0007V103.144H23.3079V105H16.7156Z" fill="#BEBEBE"/>
<path d="M160.716 106V96.5455H167.169V98.4013H163.001V100.34H166.759V102.201H163.001V106H160.716Z" fill="#BEBEBE"/>
<path d="M88.4911 23L94.9911 13.5455H96.2514L89.7514 23H88.4911ZM88.6019 18.5682V14.8335H88.5696L87.3693 15.5721V14.3672L88.6989 13.5455H89.973V18.5682H88.6019ZM94.4187 23V22.0028L96.4869 20.4425C96.6777 20.2978 96.8439 20.1593 96.9854 20.027C97.1301 19.8946 97.2024 19.7377 97.2024 19.5561C97.2024 19.3776 97.1239 19.2437 96.967 19.1545C96.8131 19.0621 96.6238 19.016 96.3991 19.016C96.1683 19.016 95.9821 19.0668 95.8406 19.1683C95.699 19.2699 95.6282 19.4268 95.6282 19.6392H94.3079C94.3079 19.0945 94.5079 18.6697 94.908 18.3651C95.3081 18.0573 95.8159 17.9034 96.4315 17.9034C97.0655 17.9034 97.5702 18.0619 97.9457 18.3789C98.3211 18.6959 98.5089 19.0821 98.5089 19.5376C98.5089 19.79 98.455 20.0224 98.3473 20.2347C98.2427 20.4471 98.0811 20.6502 97.8626 20.8441C97.6471 21.0349 97.3748 21.2257 97.0455 21.4165L96.413 21.8043V21.8551H98.5181V23H94.4187Z" fill="#BEBEBE"/>
</svg>
