<svg width="411" height="198" viewBox="0 0 411 198" fill="none" xmlns="http://www.w3.org/2000/svg">
<g clip-path="url(#clip0_60_29)">
<mask id="path-1-inside-1_60_29" fill="white">
<path d="M411 205.5C411 150.998 389.349 98.7283 350.81 60.1896C312.272 21.6508 260.002 4.11479e-06 205.5 0C150.998 -4.11478e-06 98.7283 21.6508 60.1896 60.1895C21.6508 98.7283 8.22957e-06 150.998 0 205.5L205.5 205.5H411Z"/>
</mask>
<path d="M411 205.5C411 150.998 389.349 98.7283 350.81 60.1896C312.272 21.6508 260.002 4.11479e-06 205.5 0C150.998 -4.11478e-06 98.7283 21.6508 60.1896 60.1895C21.6508 98.7283 8.22957e-06 150.998 0 205.5L205.5 205.5H411Z" fill="#0D0D0D" stroke="#FF0000" stroke-width="14" mask="url(#path-1-inside-1_60_29)"/>
<path d="M34.0881 190.355C32.8191 190.355 31.7254 190.054 30.8068 189.453C29.8883 188.847 29.1804 187.978 28.6832 186.847C28.1861 185.71 27.9399 184.344 27.9446 182.749C27.9493 181.153 28.1979 179.799 28.6903 178.686C29.1875 177.569 29.893 176.719 30.8068 176.136C31.7254 175.549 32.8191 175.256 34.0881 175.256C35.357 175.256 36.4508 175.549 37.3693 176.136C38.2926 176.719 39.0028 177.569 39.5 178.686C39.9972 179.804 40.2434 181.158 40.2386 182.749C40.2386 184.349 39.9901 185.717 39.4929 186.854C38.9957 187.99 38.2879 188.859 37.3693 189.46C36.4555 190.057 35.3617 190.355 34.0881 190.355ZM34.0881 187.479C34.8456 187.479 35.4588 187.093 35.9276 186.321C36.3963 185.545 36.6283 184.354 36.6236 182.749C36.6236 181.697 36.517 180.831 36.304 180.149C36.0909 179.463 35.795 178.951 35.4162 178.615C35.0374 178.279 34.5947 178.111 34.0881 178.111C33.3352 178.111 32.7268 178.492 32.2628 179.254C31.7988 180.012 31.5644 181.177 31.5597 182.749C31.5549 183.814 31.6567 184.697 31.8651 185.398C32.0781 186.098 32.3764 186.622 32.7599 186.967C33.1435 187.308 33.5862 187.479 34.0881 187.479Z" fill="#BEBEBE"/>
<path d="M204.605 40.1989C203.497 40.1989 202.515 40.0095 201.658 39.6307C200.805 39.2472 200.133 38.7192 199.641 38.0469C199.148 37.3745 198.897 36.6004 198.888 35.7244H202.425C202.439 36.0417 202.541 36.3234 202.73 36.5696C202.92 36.8111 203.178 37.0005 203.504 37.1378C203.831 37.2751 204.203 37.3438 204.619 37.3438C205.036 37.3438 205.403 37.2704 205.72 37.1236C206.042 36.9721 206.293 36.7661 206.473 36.5057C206.653 36.2405 206.741 35.9375 206.736 35.5966C206.741 35.2557 206.643 34.9527 206.445 34.6875C206.246 34.4223 205.964 34.2164 205.599 34.0696C205.24 33.9228 204.813 33.8494 204.321 33.8494H202.908V31.3494H204.321C204.752 31.3494 205.131 31.2784 205.457 31.1364C205.789 30.9943 206.047 30.7955 206.232 30.5398C206.416 30.2794 206.506 29.9811 206.501 29.6449C206.506 29.3182 206.428 29.0317 206.267 28.7855C206.111 28.5346 205.891 28.3404 205.607 28.2031C205.327 28.0658 205.003 27.9972 204.634 27.9972C204.245 27.9972 203.893 28.0658 203.575 28.2031C203.263 28.3404 203.014 28.5346 202.83 28.7855C202.645 29.0365 202.548 29.3277 202.538 29.6591H199.179C199.188 28.7926 199.43 28.0303 199.903 27.3722C200.377 26.7093 201.021 26.1908 201.835 25.8168C202.654 25.4427 203.587 25.2557 204.634 25.2557C205.675 25.2557 206.591 25.438 207.382 25.8026C208.173 26.1671 208.788 26.6643 209.229 27.294C209.669 27.919 209.889 28.6269 209.889 29.4176C209.894 30.2367 209.626 30.9115 209.087 31.4418C208.552 31.9721 207.863 32.2988 207.02 32.4219V32.5355C208.147 32.6681 208.997 33.0327 209.57 33.6293C210.147 34.2259 210.434 34.9716 210.429 35.8665C210.429 36.7093 210.18 37.4574 209.683 38.1108C209.191 38.7595 208.504 39.2708 207.624 39.6449C206.748 40.0142 205.741 40.1989 204.605 40.1989Z" fill="#BEBEBE"/>
<path d="M109.072 65V62.4716L114.378 57.8267C114.776 57.4669 115.114 57.1378 115.393 56.8395C115.673 56.5365 115.886 56.2334 116.033 55.9304C116.179 55.6226 116.253 55.2888 116.253 54.929C116.253 54.5265 116.165 54.1832 115.99 53.8991C115.815 53.6103 115.573 53.3878 115.266 53.2315C114.958 53.0753 114.605 52.9972 114.207 52.9972C113.805 52.9972 113.452 53.08 113.149 53.2457C112.846 53.4067 112.609 53.6411 112.439 53.9489C112.273 54.2566 112.19 54.6307 112.19 55.071H108.859C108.859 54.0814 109.082 53.2268 109.527 52.5071C109.972 51.7874 110.597 51.2334 111.402 50.8452C112.212 50.4522 113.152 50.2557 114.222 50.2557C115.325 50.2557 116.284 50.4403 117.098 50.8097C117.912 51.179 118.542 51.6951 118.987 52.358C119.437 53.0161 119.662 53.7808 119.662 54.652C119.662 55.206 119.551 55.7552 119.328 56.2997C119.106 56.8442 118.705 57.4455 118.128 58.1037C117.555 58.7618 116.741 59.5502 115.685 60.4688L113.945 62.0739V62.1662H119.839V65H109.072Z" fill="#BEBEBE"/>
<path d="M290.895 59.5852V56.8438L296.854 47.4545H299.29V51.1761H297.876L294.389 56.7017V56.8153H303.018V59.5852H290.895ZM297.919 62V58.7472L297.99 57.5469V47.4545H301.278V62H297.919Z" fill="#BEBEBE"/>
<path d="M356.641 118.199C355.58 118.199 354.638 118.007 353.814 117.624C352.99 117.24 352.339 116.712 351.861 116.04C351.387 115.367 351.141 114.596 351.122 113.724H354.531C354.56 114.259 354.777 114.69 355.185 115.017C355.592 115.339 356.077 115.5 356.641 115.5C357.081 115.5 357.472 115.403 357.812 115.209C358.153 115.015 358.421 114.742 358.615 114.392C358.809 114.037 358.904 113.63 358.899 113.17C358.904 112.702 358.807 112.292 358.608 111.942C358.414 111.591 358.144 111.319 357.798 111.125C357.457 110.926 357.064 110.827 356.619 110.827C356.198 110.822 355.798 110.914 355.419 111.104C355.045 111.293 354.761 111.551 354.567 111.878L351.463 111.295L352.095 103.455H361.428V106.288H354.986L354.652 109.719H354.737C354.979 109.316 355.367 108.985 355.902 108.724C356.442 108.459 357.055 108.327 357.741 108.327C358.613 108.327 359.389 108.53 360.071 108.938C360.758 109.34 361.297 109.899 361.69 110.614C362.088 111.329 362.287 112.148 362.287 113.071C362.287 114.07 362.05 114.955 361.577 115.727C361.108 116.499 360.45 117.105 359.602 117.545C358.759 117.981 357.772 118.199 356.641 118.199Z" fill="#BEBEBE"/>
<path d="M61.7983 99.4545V114H58.2898V102.736H58.2045L54.9517 104.724V101.685L58.5384 99.4545H61.7983Z" fill="#BEBEBE"/>
<path d="M376.903 191.199C376.108 191.199 375.346 191.071 374.616 190.815C373.887 190.555 373.239 190.143 372.67 189.58C372.102 189.011 371.655 188.268 371.328 187.349C371.001 186.426 370.84 185.302 370.845 183.976C370.85 182.778 370.997 181.703 371.286 180.751C371.574 179.795 371.986 178.983 372.521 178.315C373.061 177.648 373.705 177.139 374.453 176.788C375.206 176.433 376.046 176.256 376.974 176.256C377.992 176.256 378.89 176.455 379.666 176.852C380.447 177.245 381.072 177.776 381.541 178.443C382.01 179.106 382.287 179.845 382.372 180.659H378.913C378.809 180.2 378.58 179.852 378.224 179.615C377.874 179.374 377.457 179.253 376.974 179.253C376.084 179.253 375.419 179.639 374.979 180.411C374.543 181.182 374.321 182.214 374.311 183.507H374.403C374.602 183.071 374.889 182.697 375.263 182.385C375.637 182.072 376.065 181.833 376.548 181.668C377.036 181.497 377.552 181.412 378.097 181.412C378.968 181.412 379.737 181.613 380.405 182.016C381.072 182.418 381.596 182.97 381.974 183.67C382.353 184.366 382.54 185.164 382.536 186.064C382.54 187.077 382.304 187.972 381.825 188.749C381.347 189.52 380.684 190.122 379.837 190.553C378.994 190.983 378.016 191.199 376.903 191.199ZM376.882 188.5C377.313 188.5 377.699 188.398 378.04 188.195C378.381 187.991 378.648 187.714 378.842 187.364C379.036 187.013 379.131 186.618 379.126 186.178C379.131 185.732 379.036 185.337 378.842 184.991C378.653 184.646 378.388 184.371 378.047 184.168C377.711 183.964 377.325 183.862 376.889 183.862C376.572 183.862 376.276 183.921 376.001 184.04C375.727 184.158 375.488 184.324 375.284 184.537C375.085 184.745 374.929 184.991 374.815 185.276C374.702 185.555 374.643 185.858 374.638 186.185C374.643 186.616 374.742 187.006 374.936 187.357C375.13 187.707 375.395 187.986 375.732 188.195C376.068 188.398 376.451 188.5 376.882 188.5Z" fill="#BEBEBE"/>
<path d="M206 6L206 22" stroke="#BEBEBE" stroke-width="5"/>
<path d="M37 99L50.9297 106.872" stroke="#BEBEBE" stroke-width="5"/>
<path d="M378.141 99L364.211 106.872" stroke="#BEBEBE" stroke-width="5"/>
<path d="M102 36L109.221 50.278" stroke="#BEBEBE" stroke-width="5"/>
<path d="M313.141 36L305.92 50.278" stroke="#BEBEBE" stroke-width="5"/>
<path d="M148 15L152.141 30.4548" stroke="#BEBEBE" stroke-width="2"/>
<path d="M267.141 15L263 30.4548" stroke="#BEBEBE" stroke-width="2"/>
<path d="M64 65L75.3137 76.3137" stroke="#BEBEBE" stroke-width="2"/>
<path d="M351.141 65L339.827 76.3137" stroke="#BEBEBE" stroke-width="2"/>
<path d="M18 140L33.6316 143.414" stroke="#BEBEBE" stroke-width="2"/>
<path d="M397.141 140L381.51 143.414" stroke="#BEBEBE" stroke-width="2"/>
<path d="M8 184.199L23.955 183" stroke="#BEBEBE" stroke-width="5"/>
<path d="M402.955 185.199L387 184" stroke="#BEBEBE" stroke-width="5"/>
<mask id="path-22-inside-2_60_29" fill="white">
<path d="M411 205.5C411 150.998 389.349 98.7283 350.81 60.1896C312.272 21.6508 260.002 4.11479e-06 205.5 0C150.998 -4.11478e-06 98.7283 21.6508 60.1896 60.1895C21.6508 98.7283 8.22957e-06 150.998 0 205.5L205.5 205.5H411Z"/>
</mask>
<path d="M411 205.5C411 150.998 389.349 98.7283 350.81 60.1896C312.272 21.6508 260.002 4.11479e-06 205.5 0C150.998 -4.11478e-06 98.7283 21.6508 60.1896 60.1895C21.6508 98.7283 8.22957e-06 150.998 0 205.5L205.5 205.5H411Z" stroke="#FF0000" stroke-width="14" mask="url(#path-22-inside-2_60_29)"/>
</g>
<defs>
<clipPath id="clip0_60_29">
<rect width="411" height="198" fill="white"/>
</clipPath>
</defs>
</svg>
