<svg width="1182" height="476" viewBox="0 0 1182 476" fill="none" xmlns="http://www.w3.org/2000/svg">
<path d="M144.386 433.043C43.3576 403.754 21.4238 319.881 23.0855 281.606C41.3636 106.871 327.105 21.9999 589.707 22C960.254 22.0001 1159.65 180.093 1157.99 281.606C1156.33 383.118 1071.58 433.043 976.87 444.692C901.099 454.011 779.134 448.575 727.623 444.692H494.993C445.144 444.692 270.671 469.654 144.386 433.043Z" fill="#0D0D0D"/>
<path d="M1123.5 376H56L198.5 453H1017.5L1123.5 376Z" fill="#302E2F"/>
<path d="M144.386 433.043C43.3576 403.754 21.4238 319.881 23.0855 281.606C41.3636 106.871 327.105 21.9999 589.707 22C960.254 22.0001 1159.65 180.093 1157.99 281.606C1156.33 383.118 1071.58 433.043 976.87 444.692C901.099 454.011 779.134 448.575 727.623 444.692H494.993C445.144 444.692 270.671 469.654 144.386 433.043Z" stroke="url(#paint0_radial_60_122)" stroke-width="35"/>
<defs>
<radialGradient id="paint0_radial_60_122" cx="0" cy="0" r="1" gradientTransform="matrix(-0.25208 280.721 -739.253 -0.666908 591.283 223.361)" gradientUnits="userSpaceOnUse">
<stop offset="0.146711" stop-color="#666666"/>
<stop offset="0.410732"/>
<stop offset="0.615051"/>
<stop offset="0.835451" stop-color="#666666"/>
</radialGradient>
</defs>
</svg>
